# xmcd CD database file
#
# Track frame offsets:
#	150
#	11904
#	28222
#	34017
#	50323
#	70071
#	86400
#	104752
#	120275
#	141674
#	163359
#	174467
#
# Disc length: 2540 seconds
#
# Revision: 2
# Processed by: cddbd v1.5.1PL0 Copyright (c) Steve Scherf et al.
# Submitted via: CDex 1.51
#
DISCID=a709ea0c
DTITLE=Joseph Leonard - Soft On The Small Moon
DYEAR=2004
DGENRE=Folk
TTITLE0=The Hollow Swallow
TTITLE1=Of Mice
TTITLE2=[All...]
TTITLE3=Lot's Wife
TTITLE4=With You Tonight
TTITLE5=Pacific Ocean Flu
TTITLE6=The Neighbour's Dog Whom I Loved and Later Shot
TTITLE7=Sweet Brother Coma
TTITLE8=Ahead
TTITLE9=The Ice Prince
TTITLE10=[I Have...]
TTITLE11=Oh Amanda
EXTD=YEAR: 2004
EXTT0=
EXTT1=
EXTT2=
EXTT3=
EXTT4=
EXTT5=
EXTT6=
EXTT7=
EXTT8=
EXTT9=
EXTT10=
EXTT11=
PLAYORDER=
